# xmcd CD database file
#
# Track frame offsets:
#	150
#	19835
#	42995
#	64344
#	85042
#	106919
#	125319
#	141921
#	161721
#	179140
#	190633
#	210588
#
# Disc length: 3013 seconds
#
# Revision: 1
# Processed by: cddbd v1.4PL0 Copyright (c) Steve Scherf et al.
# Submitted via: CDex 1.50Beta7
#
DISCID=a70bc30c
DTITLE=All stars - Mondial' Salsa
DYEAR=1900
DGENRE=Salsa
TTITLE0=A la memoria del muerto - Fruko Y Sus Tesos
TTITLE1=Acuyuye - Sonora Carruseles
TTITLE2=Micaela - Sonora Carruseles
TTITLE3=Pegaso - Latin Brothers
TTITLE4=Bururu Barara - Fruko Y Su Orquesta
TTITLE5=La joda - Gabino Pampini
TTITLE6=Cosas que suceden - Sonora Dinamita
TTITLE7=Te la estan jugando - Los Titanes
TTITLE8=El palito de la alcancia - Los Nemus Del Pacifico
TTITLE9=Dile que por mi no tema - Zenide Y La Nueva Sonora
TTITLE10=La noche - Joe Arroyo
TTITLE11=El carretero - Alfredo De La Fé
EXTD=
EXTT0=
EXTT1=
EXTT2=
EXTT3=
EXTT4=
EXTT5=
EXTT6=
EXTT7=
EXTT8=
EXTT9=
EXTT10=
EXTT11=
PLAYORDER=
